# xmcd
#
# Track frame offsets:
# 150
# 16434
# 29253
# 53584
# 74895
# 89695
# 112784
# 131976
# 158525
# 199304
# 222435
# 243165
# 269095
#
# Disc length: 3849 seconds
#
#
# Revision: 3
# Processed by: cddbd v1.5.1PL2 Copyright (c) Steve Scherf et al.
# Submitted via: FreeRIP 2.944 
#
DISCID=c20f070d
DTITLE=Stevie Ray Vaughan - Alpine Valley - Disc 1
DYEAR=1990
DGENRE=Bluesrock
TTITLE0=Intro
TTITLE1=The House Is Rockin'
TTITLE2=Tightrope
TTITLE3=The Things I Used To Do
TTITLE4=Let Me Love You Baby
TTITLE5=Leave That Little Girl Alone
TTITLE6=Pride And Joy
TTITLE7=Wall Of Denial
TTITLE8=Riveria Paradise
TTITLE9=Superstition
TTITLE10=Couldn't Stand The Weather
TTITLE11=Goin' Down
TTITLE12=Crossfire
EXTD=
EXTT0=
EXTT1=
EXTT2=
EXTT3=
EXTT4=
EXTT5=
EXTT6=
EXTT7=
EXTT8=
EXTT9=
EXTT10=
EXTT11=
EXTT12=
PLAYORDER=
